# xmcd
#
# Track frame offsets:
#	150
#	10317
#	23227
#	37343
#	47285
#	58297
#	70803
#	83306
#	97702
#	110720
#	124678
#	138524
#	150448
#	163443
#	174250
#	187579
#	200504
#	213662
#	226036
#	237304
#	248179
#	263732
#	274658
#	285449
#	294272
#	308001
#	320760
#	335276
#	347643
#	352632
#	365614
#	378335
#
# Disc length: 5229 seconds
# Revision: 3
# Processed by: cddbd v1.5.2PL0 Copyright (c) Steve Scherf et al.
# Submitted via: dBpowerAMP V12.0
#
DISCID=c2146b20
DTITLE=Various Artist - The Sun Blues Box 1 - Down South Blues
DYEAR=2013
DGENRE=Blues
TTITLE0=Lost John Hunter and His Blind Bats - Cool Down Mamma
TTITLE1=Lost John Hunter and His Blind Bats - Schoolboy
TTITLE2=Lost John Hunter and His Blind Bats - Y-M and V Blues
TTITLE3=Lost John Hunter and His Blind Bats - Boogie for Me Baby
TTITLE4=CHARLIE BURSE - Shorty the Barber
TTITLE5=Joe Hill Louis - Boogie in the Park
TTITLE6=Joe Hill Louis - Gotta Let You Go
TTITLE7=Sleepy John Estes - Registration Day Blues
TTITLE8=Sleepy John Estes - Policy Man
TTITLE9=Sleepy John Estes - Rats in My Kitchen
TTITLE10=Sleepy John Estes - Runnin' Around
TTITLE11=Doctor Ross and His Jump, Jive Boys - Doctor Ross Boogie
TTITLE12=Doctor Ross and His Jump, Jive Boys - Country Clown
TTITLE13=Doctor Ross and His Jump, Jive Boys - Cat Squirrel
TTITLE14=Doctor Ross and His Jump, Jive Boys - Little Soldier Boy
TTITLE15=Doctor Ross and His Jump, Jive Boys - Shake 'Em on Down
TTITLE16=Doctor Ross and His Jump, Jive Boys - Down South Blues (Lacey Belle)
TTITLE17=Doctor Ross and His Jump, Jive Boys - Texas Hop
TTITLE18=L.B. Lawson and James Scott's Blues Rockers - Can't Love Me and My Money Too
TTITLE19=L.B. Lawson and James Scott's Blues Rockers - Flypaper Boogie
TTITLE20=L.B. Lawson and James Scott's Blues Rockers - Got My Call Card
TTITLE21=L.B. Lawson and James Scott's Blues Rockers - Scott's Boogie
TTITLE22=William "Talking Boy" Stewart - They Call Me Talking Boy
TTITLE23=William "Talking Boy" Stewart - County Farm Blues
TTITLE24=William "Talking Boy" Stewart - Forty-Four Blues
TTITLE25=William "Talking Boy" Stewart - Rattlesnakin' Mama
TTITLE26=Woodrow Adams and Three Bs - Pretty Baby Blues
TTITLE27=Woodrow Adams and Three Bs - She's Done Come and Gone
TTITLE28=Woodrow Adams and Three Bs - If You Don't Want Me
TTITLE29=Woodrow Adams and Three Bs - Last Time
TTITLE30=Woodrow Adams and Three Bs - Train Time
TTITLE31=Woodrow Adams and Three Bs - Train Is Comin'
EXTD=
EXTT0=
EXTT1=
EXTT2=
EXTT3=
EXTT4=
EXTT5=
EXTT6=
EXTT7=
EXTT8=
EXTT9=
EXTT10=
EXTT11=
EXTT12=
EXTT13=
EXTT14=
EXTT15=
EXTT16=
EXTT17=
EXTT18=
EXTT19=
EXTT20=
EXTT21=
EXTT22=
EXTT23=
EXTT24=
EXTT25=
EXTT26=
EXTT27=
EXTT28=
EXTT29=
EXTT30=
EXTT31=
PLAYORDER=
